<svg width="24" height="25" viewBox="0 0 24 25" fill="none" xmlns="http://www.w3.org/2000/svg">
<path d="M6.09436 11.6829C6.03221 11.2823 5.99996 10.872 5.99996 10.4541C5.99996 6.03582 9.60525 2.4541 14.0526 2.4541C18.4999 2.4541 22.1052 6.03582 22.1052 10.4541C22.1052 11.4522 21.9213 12.4076 21.5852 13.2886C21.5154 13.4716 21.4804 13.5631 21.4646 13.6345C21.4489 13.7053 21.4428 13.7551 21.4411 13.8276C21.4394 13.9007 21.4493 13.9813 21.4692 14.1424L21.8717 17.4126C21.9153 17.7666 21.9371 17.9436 21.8782 18.0723C21.8266 18.1851 21.735 18.2746 21.6211 18.3236C21.4911 18.3795 21.3146 18.3536 20.9617 18.3019L17.7765 17.835C17.6101 17.8106 17.527 17.7984 17.4512 17.7989C17.3763 17.7993 17.3245 17.8048 17.2511 17.8202C17.177 17.8358 17.0823 17.8713 16.893 17.9422C16.0097 18.2731 15.0524 18.4541 14.0526 18.4541C13.6344 18.4541 13.2237 18.4224 12.8227 18.3614M7.63158 22.4541C10.5965 22.4541 13 19.9917 13 16.9541C13 13.9165 10.5965 11.4541 7.63158 11.4541C4.66668 11.4541 2.26316 13.9165 2.26316 16.9541C2.26316 17.5647 2.36028 18.152 2.53955 18.7008C2.61533 18.9328 2.65322 19.0488 2.66566 19.128C2.67864 19.2108 2.68091 19.2572 2.67608 19.3408C2.67145 19.4209 2.65141 19.5114 2.61134 19.6924L2 22.4541L4.9948 22.0451C5.15827 22.0228 5.24 22.0116 5.31137 22.0121C5.38652 22.0126 5.42641 22.0167 5.50011 22.0314C5.5701 22.0453 5.67416 22.082 5.88227 22.1555C6.43059 22.349 7.01911 22.4541 7.63158 22.4541Z" stroke="#020916" stroke-width="2" stroke-linecap="round" stroke-linejoin="round"/>
</svg>