<svg width="183" height="182" viewBox="0 0 183 182" fill="none" xmlns="http://www.w3.org/2000/svg">
<path fill-rule="evenodd" clip-rule="evenodd" d="M92.666 179.945C96.033 179.577 99.3737 177.349 102.558 173.308C106.048 168.879 109.235 162.409 111.931 154.323C117.317 138.164 120.666 115.775 120.666 91C120.666 66.2248 117.317 43.8365 111.931 27.6766C109.235 19.5915 106.048 13.1206 102.558 8.69162C99.3737 4.6511 96.033 2.42312 92.666 2.0547V179.945ZM90.666 179.945V2.0547C87.299 2.42312 83.9584 4.6511 80.7741 8.69162C77.2836 13.1206 74.0965 19.5915 71.4015 27.6766C66.0149 43.8365 62.666 66.2248 62.666 91C62.666 115.775 66.0149 138.164 71.4015 154.323C74.0965 162.409 77.2836 168.879 80.7741 173.308C83.9584 177.349 87.299 179.577 90.666 179.945ZM91.666 0C41.4081 0 0.666016 40.7421 0.666016 91C0.666016 141.258 41.4081 182 91.666 182C141.924 182 182.666 141.258 182.666 91C182.666 40.7421 141.924 0 91.666 0ZM50.0717 27.9151C59.067 14.4221 70.8598 5.35028 83.9323 2.7604C82.2761 3.97444 80.6964 5.55898 79.2032 7.45367C75.5154 12.1332 72.238 18.8425 69.5041 27.0442C64.0329 43.4579 60.666 66.0696 60.666 91C60.666 115.93 64.0329 138.542 69.5041 154.956C72.238 163.157 75.5154 169.867 79.2032 174.546C80.6964 176.441 82.2761 178.026 83.9323 179.24C70.8598 176.65 59.067 167.578 50.0717 154.085C39.3376 137.984 32.666 115.683 32.666 91C32.666 66.3171 39.3376 44.0161 50.0717 27.9151ZM133.26 154.085C124.265 167.578 112.472 176.65 99.3998 179.24C101.056 178.026 102.636 176.441 104.129 174.546C107.817 169.867 111.094 163.157 113.828 154.956C119.299 138.542 122.666 115.93 122.666 91C122.666 66.0696 119.299 43.4579 113.828 27.0442C111.094 18.8425 107.817 12.1332 104.129 7.45367C102.636 5.55898 101.056 3.97444 99.3998 2.7604C112.472 5.35028 124.265 14.4221 133.26 27.9151C143.994 44.0161 150.666 66.3171 150.666 91C150.666 115.683 143.994 137.984 133.26 154.085ZM74.4557 178.337C64.4343 173.958 55.5191 165.862 48.4076 155.194C37.4258 138.722 30.666 116.023 30.666 91C30.666 65.9773 37.4258 43.2783 48.4076 26.8057C55.5191 16.1384 64.4343 8.04208 74.4557 3.6627C33.5384 11.6795 2.66602 47.7344 2.66602 91C2.66602 134.266 33.5384 170.32 74.4557 178.337ZM108.876 178.337C149.794 170.32 180.666 134.266 180.666 91C180.666 47.7344 149.794 11.6795 108.876 3.6627C118.898 8.04208 127.813 16.1384 134.924 26.8057C145.906 43.2783 152.666 65.9773 152.666 91C152.666 116.023 145.906 138.722 134.924 155.194C127.813 165.862 118.898 173.958 108.876 178.337Z" fill="#CEFF7E"/>
</svg>