<svg width="22" height="21" viewBox="0 0 22 21" fill="none" xmlns="http://www.w3.org/2000/svg">
<path d="M21 7.4541H1M1 6.2541V14.6541C1 16.3343 1 17.1743 1.32698 17.8161C1.6146 18.3806 2.07354 18.8395 2.63803 19.1271C3.27976 19.4541 4.11984 19.4541 5.8 19.4541H16.2C17.8802 19.4541 18.7202 19.4541 19.362 19.1271C19.9265 18.8395 20.3854 18.3806 20.673 17.8161C21 17.1743 21 16.3343 21 14.6541V6.2541C21 4.57394 21 3.73387 20.673 3.09213C20.3854 2.52764 19.9265 2.0687 19.362 1.78108C18.7202 1.4541 17.8802 1.4541 16.2 1.4541H5.8C4.11984 1.4541 3.27976 1.4541 2.63803 1.78108C2.07354 2.0687 1.6146 2.52764 1.32698 3.09213C1 3.73386 1 4.57394 1 6.2541Z" stroke="#CEFF7E" stroke-width="2" stroke-linecap="round" stroke-linejoin="round"/>
</svg>