<svg width="159" height="184" viewBox="0 0 159 184" fill="none" xmlns="http://www.w3.org/2000/svg">
<path fill-rule="evenodd" clip-rule="evenodd" d="M79.8345 1.1337L79.3345 0.845215L79.334 0.845453L79.3336 0.845215L78.8336 1.1337L40.3341 23.345L39.8336 23.6337L39.3333 23.9223V23.9239L0.934675 46.134L0.934193 46.1343L0.934001 46.1344L0.434879 46.4227V46.4231V46.9999V91.3637L0.332031 91.4231L0.333319 92.0021L0.433417 137.002L0.434698 137.578L0.93321 137.866L2.04681 138.509L39.3333 160.076V160.077L39.8336 160.366L40.3341 160.655L78.8331 182.866L78.8336 182.866L78.8496 182.875L79.333 183.155L79.3333 183.154L79.3336 183.155L79.817 182.875L79.833 182.866L79.8335 182.866L118.333 160.654L118.334 160.655L118.833 160.366L118.834 160.366L118.838 160.363L119.333 160.077V160.077L157.733 137.866L157.734 137.866L157.751 137.855L158.233 137.577V137.577V137V92.5767V91.9999V91.4231V46.9999V46.4231V46.4227L157.734 46.1343L157.733 46.134L157.727 46.1302L119.335 23.9239V23.9223L118.835 23.6337L118.334 23.345L79.8345 1.1337ZM42.3592 159.486L79.3333 180.845L116.308 159.486L79.334 138.155L42.3592 159.486ZM80.3348 90.2676V47.5766L117.335 26.2305V68.9215L80.3348 90.2676ZM80.3348 136.423V93.7321L117.333 115.077V157.768L80.3348 136.423ZM79.334 45.845L42.36 24.5138L79.334 3.15517L116.308 24.5138L79.334 45.845ZM41.3333 26.2305L78.3333 47.5766V90.2685L41.3333 68.9223V26.2305ZM2.43488 47.5771V90.2099L39.3333 68.9223V26.2622L2.43488 47.5771ZM3.07196 136.792L2.43488 136.423V93.7335L39.3333 115.076V157.738L3.07196 136.792ZM41.3333 157.769V115.078L78.3333 93.7321V136.423L41.3333 157.769ZM156.233 136.423L119.333 157.738V115.077L156.233 93.7335V136.423ZM40.3333 70.6544L77.3322 91.9999L40.3347 113.345L3.38335 91.9717L40.3333 70.6544ZM118.333 113.345L81.3352 92.0003L118.333 70.6552L155.236 91.9999L118.333 113.345ZM156.233 90.2662V47.5771L119.335 26.2622V68.9239L156.233 90.2662Z" fill="#CEFF7E"/>
</svg>