<svg width="24" height="25" viewBox="0 0 24 25" fill="none" xmlns="http://www.w3.org/2000/svg">
<path d="M11.9906 2.2417C6.19453 2.23935 1.5 6.93154 1.5 12.7229C1.5 17.3026 4.43672 21.1956 8.52656 22.6253C9.07734 22.7636 8.99297 22.3721 8.99297 22.105V20.2886C5.8125 20.6612 5.68359 18.5565 5.47031 18.205C5.03906 17.469 4.01953 17.2815 4.32422 16.93C5.04844 16.5573 5.78672 17.0237 6.64219 18.287C7.26094 19.2034 8.46797 19.0487 9.07969 18.8964C9.21328 18.3456 9.49922 17.8534 9.89297 17.4714C6.59766 16.8807 5.22422 14.8698 5.22422 12.4792C5.22422 11.319 5.60625 10.2526 6.35625 9.39248C5.87812 7.97451 6.40078 6.76045 6.47109 6.57998C7.83281 6.4581 9.24844 7.55498 9.35859 7.6417C10.132 7.4331 11.0156 7.32295 12.0047 7.32295C12.9984 7.32295 13.8844 7.43779 14.6648 7.64873C14.9297 7.44717 16.2422 6.50498 17.5078 6.61982C17.5758 6.80029 18.0867 7.98623 17.6367 9.38545C18.3961 10.2479 18.7828 11.3237 18.7828 12.4862C18.7828 14.8815 17.4 16.8948 14.0953 17.4761C14.3784 17.7544 14.6031 18.0864 14.7564 18.4526C14.9098 18.8188 14.9886 19.2119 14.9883 19.6089V22.2456C15.007 22.4565 14.9883 22.6651 15.3398 22.6651C19.4906 21.2659 22.4789 17.3448 22.4789 12.7253C22.4789 6.93154 17.782 2.2417 11.9906 2.2417Z" fill="#CEFF7E"/>
</svg>