<svg width="24" height="24" viewBox="0 0 24 24" fill="none" xmlns="http://www.w3.org/2000/svg">
<path fill-rule="evenodd" clip-rule="evenodd" d="M12.0267 2C6.51773 2 2.05273 6.465 2.05273 11.974C2.05273 16.38 4.90973 20.119 8.87373 21.439C9.37273 21.529 9.55273 21.222 9.55273 20.958C9.55273 20.721 9.54473 20.093 9.54173 19.262C6.76673 19.864 6.18073 17.924 6.18073 17.924C5.72873 16.772 5.07373 16.465 5.07373 16.465C4.16873 15.846 5.14273 15.86 5.14273 15.86C6.14473 15.93 6.66973 16.888 6.66973 16.888C7.55973 18.412 9.00573 17.972 9.57173 17.717C9.66273 17.072 9.92273 16.632 10.2067 16.383C7.99273 16.132 5.66473 15.276 5.66473 11.453C5.66473 10.366 6.05373 9.474 6.68873 8.778C6.58773 8.525 6.24273 7.51 6.78773 6.138C6.78773 6.138 7.62473 5.869 9.52973 7.159C10.3277 6.938 11.1787 6.827 12.0257 6.823C12.8747 6.827 13.7267 6.938 14.5217 7.159C16.4277 5.868 17.2637 6.138 17.2637 6.138C17.8087 7.51 17.4667 8.525 17.3627 8.778C18.0027 9.474 18.3867 10.365 18.3867 11.453C18.3867 15.286 16.0567 16.128 13.8347 16.375C14.1897 16.683 14.5097 17.291 14.5097 18.221C14.5097 19.555 14.4977 20.631 14.4977 20.958C14.4977 21.225 14.6757 21.535 15.1847 21.437C19.1467 20.115 22.0007 16.379 22.0007 11.974C22.0007 6.465 17.5357 2 12.0267 2Z" fill="#9CA3AF"/>
</svg>