<svg width="24" height="24" viewBox="0 0 24 24" fill="none" xmlns="http://www.w3.org/2000/svg">
<path d="M20.9461 8.30496C20.9351 7.54796 20.7951 6.79696 20.5271 6.08896C20.0581 4.87996 19.1031 3.92396 17.8941 3.45596C17.1951 3.19296 16.4561 3.05196 15.7081 3.03596C14.7461 2.99296 14.4411 2.98096 11.9991 2.98096C9.55709 2.98096 9.24409 2.98096 8.28909 3.03596C7.54209 3.05196 6.80309 3.19296 6.10409 3.45596C4.89509 3.92396 3.93909 4.87996 3.47109 6.08896C3.20809 6.78796 3.06609 7.52696 3.05209 8.27396C3.00909 9.23696 2.99609 9.54196 2.99609 11.984C2.99609 14.426 2.99609 14.738 3.05209 15.694C3.06709 16.442 3.20809 17.18 3.47109 17.881C3.94009 19.089 4.89509 20.045 6.10509 20.513C6.80109 20.785 7.54009 20.939 8.29009 20.963C9.25309 21.006 9.55809 21.019 12.0001 21.019C14.4421 21.019 14.7551 21.019 15.7101 20.963C16.4571 20.948 17.1961 20.807 17.8961 20.544C19.1051 20.075 20.0601 19.119 20.5291 17.911C20.7921 17.211 20.9331 16.473 20.9481 15.724C20.9911 14.762 21.0041 14.457 21.0041 12.014C21.0021 9.57196 21.0021 9.26196 20.9461 8.30496ZM11.9931 16.602C9.43909 16.602 7.37009 14.533 7.37009 11.979C7.37009 9.42496 9.43909 7.35596 11.9931 7.35596C14.5451 7.35596 16.6161 9.42496 16.6161 11.979C16.6161 14.533 14.5451 16.602 11.9931 16.602ZM16.8001 8.26296C16.2031 8.26296 15.7221 7.78096 15.7221 7.18496C15.7221 6.58896 16.2031 6.10696 16.8001 6.10696C17.3951 6.10696 17.8771 6.58896 17.8771 7.18496C17.8771 7.78096 17.3951 8.26296 16.8001 8.26296Z" fill="#9CA3AF"/>
<path d="M11.9932 14.9821C13.6517 14.9821 14.9962 13.6376 14.9962 11.9791C14.9962 10.3206 13.6517 8.97607 11.9932 8.97607C10.3347 8.97607 8.99023 10.3206 8.99023 11.9791C8.99023 13.6376 10.3347 14.9821 11.9932 14.9821Z" fill="#9CA3AF"/>
</svg>