<svg width="24" height="25" viewBox="0 0 24 25" fill="none" xmlns="http://www.w3.org/2000/svg">
<path d="M2 7.4541L10.1649 13.1695C10.8261 13.6324 11.1567 13.8638 11.5163 13.9534C11.8339 14.0326 12.1661 14.0326 12.4837 13.9534C12.8433 13.8638 13.1739 13.6324 13.8351 13.1695L22 7.4541M6.8 20.4541H17.2C18.8802 20.4541 19.7202 20.4541 20.362 20.1271C20.9265 19.8395 21.3854 19.3806 21.673 18.8161C22 18.1743 22 17.3343 22 15.6541V9.2541C22 7.57394 22 6.73386 21.673 6.09213C21.3854 5.52764 20.9265 5.0687 20.362 4.78108C19.7202 4.4541 18.8802 4.4541 17.2 4.4541H6.8C5.11984 4.4541 4.27976 4.4541 3.63803 4.78108C3.07354 5.0687 2.6146 5.52764 2.32698 6.09213C2 6.73386 2 7.57394 2 9.2541V15.6541C2 17.3343 2 18.1743 2.32698 18.8161C2.6146 19.3806 3.07354 19.8395 3.63803 20.1271C4.27976 20.4541 5.11984 20.4541 6.8 20.4541Z" stroke="#020916" stroke-width="2" stroke-linecap="round" stroke-linejoin="round"/>
</svg>