<svg width="16" height="16" viewBox="0 0 16 16" fill="none" xmlns="http://www.w3.org/2000/svg">
<path d="M7.5205 2.30205C7.6741 1.99076 7.75096 1.83511 7.85523 1.78538C7.94596 1.74211 8.05143 1.74211 8.14216 1.78538C8.2465 1.83511 8.3233 1.99076 8.47696 2.30205L9.93476 5.25536C9.9801 5.34726 10.0028 5.39321 10.0359 5.42889C10.0653 5.46048 10.1005 5.48607 10.1396 5.50425C10.1838 5.52479 10.2344 5.5322 10.3358 5.54702L13.5967 6.02365C13.9401 6.07383 14.1118 6.09893 14.1912 6.1828C14.2604 6.25577 14.2928 6.35604 14.2797 6.45569C14.2646 6.57023 14.1403 6.69131 13.8917 6.93344L11.533 9.23077C11.4595 9.30237 11.4227 9.33824 11.399 9.38084C11.378 9.41851 11.3645 9.45997 11.3593 9.50284C11.3534 9.55124 11.3621 9.60184 11.3794 9.70297L11.936 12.9479C11.9947 13.2902 12.024 13.4613 11.9689 13.5628C11.9209 13.6512 11.8356 13.7132 11.7368 13.7315C11.6231 13.7526 11.4694 13.6717 11.1621 13.5101L8.24696 11.977C8.1561 11.9293 8.1107 11.9054 8.06283 11.896C8.0205 11.8877 7.9769 11.8877 7.93456 11.896C7.8867 11.9054 7.8413 11.9293 7.7505 11.977L4.83531 13.5101C4.52798 13.6717 4.3743 13.7526 4.26068 13.7315C4.16182 13.7132 4.07651 13.6512 4.02852 13.5628C3.97336 13.4613 4.00272 13.2902 4.06141 12.9479L4.61796 9.70297C4.6353 9.60184 4.64398 9.55124 4.63811 9.50284C4.63291 9.45997 4.61944 9.41851 4.59844 9.38084C4.57471 9.33824 4.53795 9.30237 4.46442 9.23077L2.10574 6.93344C1.85714 6.69131 1.73284 6.57023 1.71772 6.45569C1.70456 6.35604 1.73706 6.25577 1.8062 6.1828C1.88566 6.09893 2.05734 6.07383 2.40072 6.02365L5.66157 5.54702C5.76298 5.5322 5.81368 5.52479 5.85784 5.50425C5.89694 5.48607 5.93214 5.46048 5.96149 5.42889C5.99464 5.39321 6.01732 5.34726 6.06268 5.25536L7.5205 2.30205Z" stroke="#9CA3AF" stroke-width="1.33333" stroke-linecap="round" stroke-linejoin="round"/>
</svg>