<svg width="41" height="42" viewBox="0 0 41 42" fill="none" xmlns="http://www.w3.org/2000/svg">
<path fill-rule="evenodd" clip-rule="evenodd" d="M20.8895 1.00056C20.8898 0.724414 20.6662 0.500307 20.39 0.5C20.1139 0.499694 19.8898 0.723303 19.8895 0.999445L19.8718 16.886L16.0745 1.41415C16.0087 1.14596 15.7379 0.981916 15.4697 1.04774C15.2016 1.11356 15.0375 1.38432 15.1033 1.65251L18.9021 17.1303L11.521 3.05671C11.3927 2.81216 11.0905 2.71789 10.8459 2.84614C10.6014 2.9744 10.5071 3.27662 10.6354 3.52117L18.0025 17.568L7.47443 5.64681C7.29164 5.43983 6.97567 5.42022 6.76868 5.60301C6.5617 5.7858 6.54209 6.10178 6.72489 6.30876L17.287 18.2686L4.18429 9.23279C3.95697 9.07603 3.64559 9.13323 3.48883 9.36056C3.33206 9.58788 3.38926 9.89926 3.61659 10.056L16.6633 19.0532L1.83344 13.3995C1.57541 13.3011 1.28649 13.4306 1.18812 13.6886C1.08975 13.9466 1.21918 14.2355 1.47721 14.3339L16.3948 20.021L0.559469 18.1257C0.285284 18.0929 0.0364096 18.2886 0.00359326 18.5628C-0.029223 18.837 0.166445 19.0858 0.440631 19.1186L16.1788 21.0023L0.440083 22.9036C0.165934 22.9367 -0.0294598 23.1858 0.00365913 23.46C0.036778 23.7341 0.285868 23.9295 0.560017 23.8964L16.3777 21.9855L1.47721 27.6661C1.21918 27.7645 1.08975 28.0534 1.18812 28.3114C1.28649 28.5695 1.57541 28.6989 1.83344 28.6005L16.6631 22.9469L3.61659 31.9439C3.38926 32.1007 3.33206 32.4121 3.48883 32.6394C3.64559 32.8667 3.95697 32.9239 4.18429 32.7672L17.2871 23.7313L6.72489 35.6912C6.54209 35.8982 6.5617 36.2142 6.76868 36.397C6.97567 36.5798 7.29164 36.5602 7.47443 36.3532L18.0025 24.4319L10.6354 38.4789C10.5071 38.7234 10.6014 39.0256 10.8459 39.1539C11.0905 39.2822 11.3927 39.1879 11.521 38.9433L18.9021 24.8698L15.1033 40.3475C15.0375 40.6157 15.2016 40.8864 15.4697 40.9522C15.7379 41.0181 16.0087 40.854 16.0745 40.5858L19.8718 25.114L19.8895 41.0006C19.8898 41.2767 20.1139 41.5003 20.39 41.5C20.6662 41.4997 20.8898 41.2756 20.8895 40.9994L20.8718 25.1164L24.7041 40.5869C24.7705 40.8549 25.0416 41.0184 25.3097 40.952C25.5777 40.8856 25.7412 40.6145 25.6748 40.3464L21.8406 24.8684L29.2582 38.9442C29.387 39.1885 29.6894 39.2822 29.9337 39.1534C30.1779 39.0247 30.2716 38.7223 30.1429 38.478L22.7421 24.434L33.3041 36.3538C33.4872 36.5605 33.8032 36.5796 34.0099 36.3964C34.2166 36.2133 34.2357 35.8973 34.0526 35.6906L23.4543 23.73L36.595 32.7675C36.8225 32.924 37.1338 32.8664 37.2903 32.6389C37.4468 32.4114 37.3892 32.1001 37.1616 31.9436L24.0813 22.9475L38.945 28.6007C39.2031 28.6988 39.4919 28.5692 39.5901 28.3111C39.6883 28.053 39.5586 27.7642 39.3005 27.666L24.3648 21.9855L40.2185 23.8964C40.4926 23.9295 40.7417 23.734 40.7747 23.4598C40.8078 23.1857 40.6123 22.9366 40.3381 22.9036L24.5644 21.0023L40.3376 19.1187C40.6118 19.0859 40.8075 18.8371 40.7748 18.5629C40.742 18.2887 40.4932 18.093 40.219 18.1257L24.3477 20.0211L39.3005 14.334C39.5586 14.2359 39.6883 13.9471 39.5901 13.689C39.4919 13.4309 39.2031 13.3012 38.945 13.3994L24.0811 19.0526L37.1616 10.0564C37.3892 9.8999 37.4468 9.5886 37.2903 9.36107C37.1338 9.13355 36.8225 9.07596 36.595 9.23244L23.4544 18.2699L34.0526 6.30938C34.2357 6.1027 34.2166 5.7867 34.0099 5.60356C33.8032 5.42042 33.4872 5.43951 33.3041 5.64619L22.7421 17.5659L30.1429 3.52204C30.2716 3.27775 30.1779 2.97534 29.9337 2.8466C29.6894 2.71786 29.387 2.81154 29.2582 3.05584L21.8406 17.1317L25.6748 1.65355C25.7412 1.38551 25.5777 1.11439 25.3097 1.04799C25.0416 0.981597 24.7705 1.14506 24.7041 1.4131L20.8718 16.8836L20.8895 1.00056Z" fill="#CEFF7E"/>
</svg>