<svg width="184" height="162" viewBox="0 0 184 162" fill="none" xmlns="http://www.w3.org/2000/svg">
<path fill-rule="evenodd" clip-rule="evenodd" d="M92.002 0.839355L92.9405 4.63002L182.866 160.4L183.732 161.9H182H157.797H156.303H131.88H130.602H105.987H104.901H79.1011H78.0149H53.4019H52.1241H27.7027H26.2085H1.99954H0.267578L1.1335 160.4L91.0671 4.61522L92.002 0.839355ZM80.1873 159.9H103.815L92.001 17.1268L80.1873 159.9ZM105.822 159.9H129.324L94.0247 17.3303L105.822 159.9ZM89.9763 17.3422L78.1804 159.9H54.6797L89.9763 17.3422ZM29.1968 159.9L87.7987 17.8158L52.6193 159.9H29.1968ZM96.2031 17.8069L131.385 159.9H154.809L96.2031 17.8069ZM85.3336 18.5472L3.73151 159.9H27.0334L85.3336 18.5472ZM156.972 159.9L98.6877 18.5857L180.268 159.9H156.972Z" fill="#CEFF7E"/>
</svg>