<svg width="24" height="25" viewBox="0 0 24 25" fill="none" xmlns="http://www.w3.org/2000/svg">
<path d="M4.00002 22.2715C4.6026 22.4541 5.41649 22.4541 6.8 22.4541H17.2C18.5835 22.4541 19.3974 22.4541 20 22.2715M4.00002 22.2715C3.87082 22.2324 3.75133 22.1849 3.63803 22.1271C3.07354 21.8395 2.6146 21.3806 2.32698 20.8161C2 20.1743 2 19.3343 2 17.6541V7.2541C2 5.57394 2 4.73386 2.32698 4.09213C2.6146 3.52764 3.07354 3.0687 3.63803 2.78108C4.27976 2.4541 5.11984 2.4541 6.8 2.4541H17.2C18.8802 2.4541 19.7202 2.4541 20.362 2.78108C20.9265 3.0687 21.3854 3.52764 21.673 4.09213C22 4.73386 22 5.57394 22 7.2541V17.6541C22 19.3343 22 20.1743 21.673 20.8161C21.3854 21.3806 20.9265 21.8395 20.362 22.1271C20.2487 22.1849 20.1292 22.2324 20 22.2715M4.00002 22.2715C4.00035 21.4622 4.00521 21.034 4.07686 20.6737C4.39249 19.087 5.63288 17.8466 7.21964 17.531C7.60603 17.4541 8.07069 17.4541 9 17.4541H15C15.9293 17.4541 16.394 17.4541 16.7804 17.531C18.3671 17.8466 19.6075 19.087 19.9231 20.6737C19.9948 21.034 19.9996 21.4622 20 22.2715M16 9.9541C16 12.1632 14.2091 13.9541 12 13.9541C9.79086 13.9541 8 12.1632 8 9.9541C8 7.74496 9.79086 5.9541 12 5.9541C14.2091 5.9541 16 7.74496 16 9.9541Z" stroke="#CEFF7E" stroke-width="2" stroke-linecap="round" stroke-linejoin="round"/>
</svg>